<svg width="512" height="324" xmlns="http://www.w3.org/2000/svg">

 <g>
  <title>background</title>
  <rect fill="none" id="canvas_background" height="326" width="514" y="-1" x="-1"/>
 </g>
 <g>
  <title>Layer 1</title>
  <path fill="#dfdfe0" clip-rule="evenodd" fill-rule="evenodd" id="svg_2" d="m489.2,1.303391l-467.3,0c-9.1,0 -14.8,1.4 -17.9,4.3c-2.7,3.3 -4,8.7 -4,16.7l0,29.9l0,24.1l0,172.3l0,25.2l0,28.8c0,14.3 7.4,21.7 21.9,21.7l467.3,0c15.2,0 22.8,-7.4 22.8,-21.7l0,-28.8l0,-25.2l0,-172.4l0,-24.1l0,-29.9c0,-14.1 -7.6,-20.9 -22.8,-20.9z" class="st0"/>
  <path fill="#025380" clip-rule="evenodd" fill-rule="evenodd" id="svg_3" d="m21.9,-0.152807c-9.1,0 -14.8,1.4 -17.9,4.3c-2.7,3.3 -4,8.7 -4,16.7l0,54l512,0l0,-54c0,-14.1 -7.6,-20.9 -22.8,-20.9l-467.3,0l0,-0.1z" class="st1"/>
  <path fill="#f1a71e" clip-rule="evenodd" fill-rule="evenodd" id="svg_4" d="m0,302.603391c0,14.3 7.4,21.7 21.9,21.7l467.3,0c15.2,0 22.8,-7.4 22.8,-21.7l0,-54l-512,0l0,54l0,0z" class="st2"/>
  <path fill="#025380" clip-rule="evenodd" fill-rule="evenodd" id="svg_5" d="m176.6,119.403391c0,2.5 -0.4,4.5 -1.4,5.8l-33.9,59.1l-2.1,-72l-54.2,0l18.2,8.7c5.2,3.3 7.9,7.6 7.9,13l5,76.5l26.5,0l63.5,-98.2l-32.5,0c2,1.7 3,4.4 3,7.1l0,0z" class="st1"/>
  <path fill="#025380" clip-rule="evenodd" fill-rule="evenodd" id="svg_6" d="m395.8,115.203391l2.1,-2.9l-33.1,0c1.2,1.2 1.6,1.7 1.6,2.1c-0.4,1.5 -1.2,2.5 -1.6,3.7l-48.2,87.9c-1.2,1.6 -2.3,2.9 -3.7,4.5l27.3,0l-1.4,-2.9c0,-2.5 1.4,-7.2 4.3,-13.7l5.8,-10.8l28.1,0c1.2,9.1 1.9,16.7 2.3,22.3l-2.3,5.2l33.9,0l-5,-7.4l-10.1,-88l0,0zm-20.1,54l-20.1,0l17.2,-33.1l2.9,33.1l0,0z" class="st1"/>
  <path fill="#025380" clip-rule="evenodd" fill-rule="evenodd" id="svg_7" d="m292,107.203391c-10.5,0 -19.4,2.9 -27.3,8.7c-8.7,5 -13,11.4 -13,19.4c0,9.1 3.1,17 9.3,23l18.8,13c6.8,4.8 10.1,9.1 10.1,13c0,3.7 -1.7,7 -5,9.5c-3.3,2.5 -7,3.7 -11.6,3.7c-6.8,0 -18.4,-4.8 -34.5,-13.7l0,18c12.6,7.6 24.8,11.4 36.6,11.4c11.2,0 20.7,-3.1 28.9,-10.1c8.7,-6.4 13,-13.9 13,-22.3c0,-7 -3.1,-13.4 -10.1,-20.1l-18,-13c-6,-4.8 -9.3,-9.1 -9.3,-12.4c0,-7.6 4.5,-11.4 13.6,-11.4c6.2,0 15.3,3.5 27.5,10.8l3.7,-18.8c-10.4,-5.8 -21.1,-8.7 -32.7,-8.7l0,0z" class="st1"/>
  <path fill="#025380" clip-rule="evenodd" fill-rule="evenodd" id="svg_8" d="m220,210.403391c-0.4,-4.1 -1.2,-7.8 -1.6,-11.6l24.6,-79.4l5.8,-7.2l-35.4,0c0.4,1.7 0.8,4.1 1.2,5.8c0,1.7 0,3.9 -0.4,5.8l-24.6,78.6l-5,7.9l35.4,0l0,0.1z" class="st1"/>
 </g>
</svg>