<?xml version="1.0" encoding="UTF-8" standalone="no"?><svg xmlns="http://www.w3.org/2000/svg" xmlns:xlink="http://www.w3.org/1999/xlink"><symbol id="arrow-down" height="24" viewBox="0 0 24 24" width="24" xmlns="http://www.w3.org/2000/svg"><path clip-rule="evenodd" d="M12.7071 15.7071C12.3166 16.0976 11.6834 16.0976 11.2929 15.7071L5.29289 9.70711C4.90237 9.31658 4.90237 8.68342 5.29289 8.29289C5.68342 7.90237 6.31658 7.90237 6.70711 8.29289L12 13.5858L17.2929 8.29289C17.6834 7.90237 18.3166 7.90237 18.7071 8.29289C19.0976 8.68342 19.0976 9.31658 18.7071 9.70711L12.7071 15.7071Z" fill-rule="evenodd"></path></symbol><symbol id="arrow-left" height="24" viewBox="0 0 24 24" width="24" xmlns="http://www.w3.org/2000/svg"><path clip-rule="evenodd" d="M8.29289 12.7071C7.90237 12.3166 7.90237 11.6834 8.29289 11.2929L14.2929 5.29289C14.6834 4.90237 15.3166 4.90237 15.7071 5.29289C16.0976 5.68342 16.0976 6.31658 15.7071 6.70711L10.4142 12L15.7071 17.2929C16.0976 17.6834 16.0976 18.3166 15.7071 18.7071C15.3166 19.0976 14.6834 19.0976 14.2929 18.7071L8.29289 12.7071Z" fill-rule="evenodd"></path></symbol><symbol id="arrow-up" height="24" viewBox="0 0 24 24" width="24" xmlns="http://www.w3.org/2000/svg"><path clip-rule="evenodd" d="M11.2929 8.29289C11.6834 7.90237 12.3166 7.90237 12.7071 8.29289L18.7071 14.2929C19.0976 14.6834 19.0976 15.3166 18.7071 15.7071C18.3166 16.0976 17.6834 16.0976 17.2929 15.7071L12 10.4142L6.70711 15.7071C6.31658 16.0976 5.68342 16.0976 5.29289 15.7071C4.90237 15.3166 4.90237 14.6834 5.29289 14.2929L11.2929 8.29289Z" fill-rule="evenodd"></path></symbol><symbol id="basket" height="24" viewBox="0 0 24 24" width="24" xmlns="http://www.w3.org/2000/svg"><path clip-rule="evenodd" d="M2.17808 10.4304C2.3649 10.1608 2.67203 10 3.00001 10H21C21.328 10 21.6351 10.1608 21.8219 10.4304C22.0087 10.7 22.0515 11.044 21.9363 11.3511L18.9363 19.3511C18.79 19.7414 18.4169 20 18 20H6.00001C5.58316 20 5.21004 19.7414 5.06368 19.3511L2.06368 11.3511C1.94852 11.044 1.99126 10.7 2.17808 10.4304ZM4.44301 12L6.69301 18H17.307L19.557 12H4.44301Z" fill-rule="evenodd"></path><path clip-rule="evenodd" d="M10.6247 5.21914C11.056 5.56415 11.1259 6.19344 10.7809 6.6247L6.78087 11.6247C6.43587 12.056 5.80657 12.1259 5.37531 11.7809C4.94405 11.4359 4.87413 10.8066 5.21914 10.3753L9.21914 5.37531C9.56415 4.94405 10.1934 4.87413 10.6247 5.21914Z" fill-rule="evenodd"></path><path clip-rule="evenodd" d="M13.3753 5.21914C12.944 5.56415 12.8741 6.19344 13.2191 6.6247L17.2191 11.6247C17.5641 12.056 18.1934 12.1259 18.6247 11.7809C19.056 11.4359 19.1259 10.8066 18.7809 10.3753L14.7809 5.37531C14.4359 4.94405 13.8066 4.87413 13.3753 5.21914Z" fill-rule="evenodd"></path><path clip-rule="evenodd" d="M8.00001 13C8.55229 13 9.00001 13.4477 9.00001 14V16C9.00001 16.5523 8.55229 17 8.00001 17C7.44772 17 7.00001 16.5523 7.00001 16V14C7.00001 13.4477 7.44772 13 8.00001 13Z" fill-rule="evenodd"></path><path clip-rule="evenodd" d="M16 13C16.5523 13 17 13.4477 17 14V16C17 16.5523 16.5523 17 16 17C15.4477 17 15 16.5523 15 16V14C15 13.4477 15.4477 13 16 13Z" fill-rule="evenodd"></path><path clip-rule="evenodd" d="M12 13C12.5523 13 13 13.4477 13 14V16C13 16.5523 12.5523 17 12 17C11.4477 17 11 16.5523 11 16V14C11 13.4477 11.4477 13 12 13Z" fill-rule="evenodd"></path></symbol><symbol id="arrow-right" height="24" viewBox="0 0 24 24" width="24" xmlns="http://www.w3.org/2000/svg"><path clip-rule="evenodd" d="M15.7071 11.2929C16.0976 11.6834 16.0976 12.3166 15.7071 12.7071L9.70711 18.7071C9.31658 19.0976 8.68342 19.0976 8.29289 18.7071C7.90237 18.3166 7.90237 17.6834 8.29289 17.2929L13.5858 12L8.29289 6.70711C7.90237 6.31658 7.90237 5.68342 8.29289 5.29289C8.68342 4.90237 9.31658 4.90237 9.70711 5.29289L15.7071 11.2929Z" fill-rule="evenodd"></path></symbol><symbol id="card" height="24" viewBox="0 0 24 24" width="24" xmlns="http://www.w3.org/2000/svg"><path clip-rule="evenodd" d="M2 8C2 6.34315 3.34315 5 5 5H19C20.6569 5 22 6.34315 22 8V16C22 17.6569 20.6569 19 19 19H5C3.34315 19 2 17.6569 2 16V8ZM5 7C4.44772 7 4 7.44772 4 8V16C4 16.5523 4.44772 17 5 17H19C19.5523 17 20 16.5523 20 16V8C20 7.44772 19.5523 7 19 7H5Z" fill-rule="evenodd"></path><path clip-rule="evenodd" d="M21 11H3V9H21V11Z" fill-rule="evenodd"></path><path clip-rule="evenodd" d="M12 15H6V13H12V15Z" fill-rule="evenodd"></path></symbol><symbol id="user" enable-background="new 0 0 26 26" version="1.1" viewBox="0 0 26 26" xml:space="preserve" xmlns="http://www.w3.org/2000/svg" xmlns:xlink="http://www.w3.org/1999/xlink"><path d="M25,13c0-6.6166992-5.3828125-12-12-12S1,6.3833008,1,13c0,3.383606,1.413208,6.4386597,3.673645,8.6222534  c0.0529175,0.0689087,0.1156006,0.1247559,0.1889648,0.171814C7.0038452,23.7769165,9.8582764,25,13,25  s5.9961548-1.2230835,8.1373901-3.2059326c0.0733643-0.0470581,0.1360474-0.1029053,0.1889648-0.171814  C23.586792,19.4386597,25,16.383606,25,13z M13,2.5c5.7900391,0,10.5,4.7104492,10.5,10.5  c0,2.4549561-0.8532715,4.7108154-2.2702637,6.5008545c-0.6505127-2.0978394-2.5076294-3.7401123-5.0281372-4.4957886  c1.3735962-0.9940796,2.2720337-2.6046143,2.2720337-4.4244995c0-3.0141602-2.4550781-5.4663086-5.4736328-5.4663086  s-5.4736328,2.4521484-5.4736328,5.4663086c0,1.8198853,0.8984375,3.4304199,2.2720337,4.4244995  c-2.5205078,0.7556763-4.3776245,2.3979492-5.0281372,4.4957886C3.3532715,17.7108154,2.5,15.4549561,2.5,13  C2.5,7.2104492,7.2099609,2.5,13,2.5z M9.0263672,10.5805664c0-2.1870117,1.7822266-3.9663086,3.9736328-3.9663086  s3.9736328,1.7792969,3.9736328,3.9663086S15.1914063,14.546875,13,14.546875S9.0263672,12.7675781,9.0263672,10.5805664z   M6.0307617,20.8319702C6.2562256,18.0820313,9.1723633,16.046875,13,16.046875s6.7437744,2.0351563,6.9692383,4.7850952  C18.1130981,22.4855347,15.6757202,23.5,13,23.5S7.8869019,22.4855347,6.0307617,20.8319702z"></path></symbol><symbol id="edit" height="24" viewBox="0 0 24 24" width="24" xmlns="http://www.w3.org/2000/svg"><path clip-rule="evenodd" d="M20.7071 6.29289C21.0976 6.68342 21.0976 7.31658 20.7071 7.70711L7.70711 20.7071C7.51957 20.8946 7.26522 21 7 21L3 21C2.73478 21 2.48043 20.8946 2.29289 20.7071C2.10536 20.5196 2 20.2652 2 20L2 16C2 15.7348 2.10536 15.4804 2.2929 15.2929L15.2929 2.29289C15.6834 1.90237 16.3166 1.90237 16.7071 2.29289C17.0976 2.68342 17.0976 3.31658 16.7071 3.70711L4 16.4142L4 19L6.58579 19L19.2929 6.29289C19.6834 5.90237 20.3166 5.90237 20.7071 6.29289Z" fill-rule="evenodd"></path><path clip-rule="evenodd" d="M15.2929 2.29289C15.6834 1.90237 16.3166 1.90237 16.7071 2.29289L20.7071 6.29289C21.0976 6.68342 21.0976 7.31658 20.7071 7.70711C20.3166 8.09763 19.6834 8.09763 19.2929 7.70711L15.2929 3.70711C14.9024 3.31658 14.9024 2.68342 15.2929 2.29289Z" fill-rule="evenodd"></path><path clip-rule="evenodd" d="M16.2929 10.7071L12.2929 6.70711L13.7071 5.29289L17.7071 9.29289L16.2929 10.7071Z" fill-rule="evenodd"></path></symbol><symbol id="location" style="enable-background:new 0 0 64 64;" version="1.1" viewBox="0 0 64 64" xml:space="preserve" xmlns="http://www.w3.org/2000/svg" xmlns:xlink="http://www.w3.org/1999/xlink"><style type="text/css"><![CDATA[.st0{fill:#134563;}]]></style><g><g transform="translate(232.000000, 376.000000)"><path class="st0" d="M-200-320.3l-0.9-1.1c-0.6-0.8-15.9-18.7-15.9-29.4c0-9.3,7.6-16.8,16.8-16.8     s16.8,7.6,16.8,16.8c0,10.7-15.3,28.7-15.9,29.4L-200-320.3L-200-320.3z M-200-365.3c-8,0-14.4,6.5-14.4,14.4     c0,8.4,11.1,22.7,14.4,26.8c3.3-4.1,14.4-18.3,14.4-26.8C-185.6-358.8-192-365.3-200-365.3L-200-365.3z"></path><path class="st0" d="M-200-344.4c-3.5,0-6.4-2.9-6.4-6.4s2.9-6.4,6.4-6.4s6.4,2.9,6.4,6.4S-196.5-344.4-200-344.4     L-200-344.4z M-200-354.8c-2.2,0-4,1.8-4,4s1.8,4,4,4c2.2,0,4-1.8,4-4S-197.8-354.8-200-354.8L-200-354.8z"></path></g></g></symbol></svg>